<svg width="240" height="240" viewBox="0 0 240 240" fill="none" xmlns="http://www.w3.org/2000/svg">
<rect width="240" height="240" rx="120" fill="#CDE5FF"/>
<path d="M120 120C114.133 120 109.111 117.911 104.933 113.733C100.755 109.556 98.6663 104.533 98.6663 98.6667C98.6663 92.8 100.755 87.7778 104.933 83.6C109.111 79.4223 114.133 77.3334 120 77.3334C125.866 77.3334 130.889 79.4223 135.066 83.6C139.244 87.7778 141.333 92.8 141.333 98.6667C141.333 104.533 139.244 109.556 135.066 113.733C130.889 117.911 125.866 120 120 120ZM77.333 162.667V147.733C77.333 144.711 78.1117 141.932 79.669 139.397C81.2228 136.866 83.2886 134.933 85.8663 133.6C91.3775 130.844 96.9775 128.777 102.666 127.397C108.355 126.021 114.133 125.333 120 125.333C125.866 125.333 131.644 126.021 137.333 127.397C143.022 128.777 148.622 130.844 154.133 133.6C156.711 134.933 158.777 136.866 160.33 139.397C161.888 141.932 162.666 144.711 162.666 147.733V162.667H77.333ZM87.9997 152H152V147.733C152 146.756 151.756 145.867 151.269 145.067C150.778 144.267 150.133 143.644 149.333 143.2C144.533 140.8 139.689 138.999 134.8 137.797C129.911 136.599 124.977 136 120 136C115.022 136 110.089 136.599 105.2 137.797C100.311 138.999 95.4663 140.8 90.6663 143.2C89.8663 143.644 89.2228 144.267 88.7357 145.067C88.245 145.867 87.9997 146.756 87.9997 147.733V152ZM120 109.333C122.933 109.333 125.445 108.288 127.536 106.197C129.623 104.11 130.666 101.6 130.666 98.6667C130.666 95.7334 129.623 93.2231 127.536 91.136C125.445 89.0454 122.933 88 120 88C117.066 88 114.556 89.0454 112.469 91.136C110.378 93.2231 109.333 95.7334 109.333 98.6667C109.333 101.6 110.378 104.11 112.469 106.197C114.556 108.288 117.066 109.333 120 109.333Z" fill="#006398"/>
</svg>
