<svg width="100" height="100" viewBox="0 0 100 100" fill="none" xmlns="http://www.w3.org/2000/svg">
<rect width="100" height="100" rx="50" fill="#CDE5FF"/>
<path d="M50 50C47.8 50 45.9167 49.2167 44.35 47.65C42.7833 46.0833 42 44.2 42 42C42 39.8 42.7833 37.9167 44.35 36.35C45.9167 34.7833 47.8 34 50 34C52.2 34 54.0833 34.7833 55.65 36.35C57.2167 37.9167 58 39.8 58 42C58 44.2 57.2167 46.0833 55.65 47.65C54.0833 49.2167 52.2 50 50 50ZM34 66V60.4C34 59.2667 34.292 58.2247 34.876 57.274C35.4587 56.3247 36.2333 55.6 37.2 55.1C39.2667 54.0667 41.3667 53.2913 43.5 52.774C45.6333 52.258 47.8 52 50 52C52.2 52 54.3667 52.258 56.5 52.774C58.6333 53.2913 60.7333 54.0667 62.8 55.1C63.7667 55.6 64.5413 56.3247 65.124 57.274C65.708 58.2247 66 59.2667 66 60.4V66H34ZM38 62H62V60.4C62 60.0333 61.9087 59.7 61.726 59.4C61.542 59.1 61.3 58.8667 61 58.7C59.2 57.8 57.3833 57.1247 55.55 56.674C53.7167 56.2247 51.8667 56 50 56C48.1333 56 46.2833 56.2247 44.45 56.674C42.6167 57.1247 40.8 57.8 39 58.7C38.7 58.8667 38.4587 59.1 38.276 59.4C38.092 59.7 38 60.0333 38 60.4V62ZM50 46C51.1 46 52.042 45.608 52.826 44.824C53.6087 44.0413 54 43.1 54 42C54 40.9 53.6087 39.9587 52.826 39.176C52.042 38.392 51.1 38 50 38C48.9 38 47.9587 38.392 47.176 39.176C46.392 39.9587 46 40.9 46 42C46 43.1 46.392 44.0413 47.176 44.824C47.9587 45.608 48.9 46 50 46Z" fill="#006398"/>
<rect width="100" height="28" transform="translate(0 72)" fill="#006399" fill-opacity="0.08"/>
<g opacity="0.8">
<path d="M50 91.5C51.25 91.5 52.3127 91.0627 53.188 90.188C54.0627 89.3127 54.5 88.25 54.5 87C54.5 85.75 54.0627 84.6873 53.188 83.812C52.3127 82.9373 51.25 82.5 50 82.5C48.75 82.5 47.6873 82.9373 46.812 83.812C45.9373 84.6873 45.5 85.75 45.5 87C45.5 88.25 45.9373 89.3127 46.812 90.188C47.6873 91.0627 48.75 91.5 50 91.5ZM42 95C41.45 95 40.9793 94.8043 40.588 94.413C40.196 94.021 40 93.55 40 93V81C40 80.45 40.196 79.9793 40.588 79.588C40.9793 79.196 41.45 79 42 79H45.15L47 77H53L54.85 79H58C58.55 79 59.021 79.196 59.413 79.588C59.8043 79.9793 60 80.45 60 81V93C60 93.55 59.8043 94.021 59.413 94.413C59.021 94.8043 58.55 95 58 95H42Z" fill="#FDFCFE"/>
</g>
</svg>
