<svg width="1220" height="195" viewBox="0 0 1220 195" fill="none" xmlns="http://www.w3.org/2000/svg">
<path d="M1110.39 138.582C1110.39 105.806 1130.21 82.1909 1165.2 82.1909C1195.45 82.1909 1220 102.855 1220 134.153C1220 142.165 1217.58 149.543 1205.47 149.543H1144.96C1145.6 159.342 1151.07 168.408 1165.2 168.408C1175.31 168.408 1184.8 166.196 1191.23 164.718C1203.77 161.765 1210.31 168.408 1211.68 184.318C1211.68 184.318 1193.44 194.961 1165.2 194.961C1130.21 194.961 1110.39 171.352 1110.39 138.582ZM1185.44 127.513C1183.75 116.446 1177.1 108.755 1165.2 108.755C1153.29 108.755 1146.65 116.445 1144.96 127.513H1185.44Z" fill="#075480"/>
<path d="M1072.69 34.1389C1082.7 34.1389 1090.81 42.258 1090.81 52.2695C1090.81 62.281 1082.7 70.3917 1072.69 70.3917C1062.67 70.3917 1054.55 62.281 1054.55 52.2695C1054.55 42.258 1062.67 34.1389 1072.69 34.1389ZM1055.41 84.3096H1072.9C1087.33 84.3096 1089.97 91.5698 1089.97 103.902V164.608C1089.97 172.616 1090.61 177.89 1100.62 177.89C1100.62 185.052 1094.61 192.852 1079.22 192.852C1057.83 192.852 1055.41 176.407 1055.41 164.606V84.3096H1055.41Z" fill="#075480"/>
<path d="M928.305 173.255V84.3097H945.803C956.442 84.3097 961.505 87.9931 962.88 95.0569C963.081 94.6325 968.988 82.1909 990.172 82.1909C1022.52 82.1909 1033.9 102.956 1033.9 134.998V192.855H1016.41C1001.97 192.855 999.337 185.588 999.337 173.256V135C999.337 116.345 992.171 110.867 981.104 110.867C970.779 110.867 963.19 115.927 962.878 132.36V192.857H945.374C930.945 192.853 928.305 185.587 928.305 173.255Z" fill="#075480"/>
<path d="M802.262 138.582C802.262 105.806 822.078 82.1909 857.069 82.1909C887.312 82.1909 911.867 102.855 911.867 134.153C911.867 142.165 909.449 149.543 897.327 149.543H836.832C837.469 159.342 842.94 168.408 857.069 168.408C867.184 168.408 876.67 166.196 883.101 164.718C895.637 161.765 902.174 168.408 903.547 184.318C903.547 184.318 885.315 194.961 857.069 194.961C822.078 194.961 802.262 171.352 802.262 138.582ZM877.3 127.513C875.613 116.446 868.972 108.755 857.069 108.755C845.154 108.755 838.521 116.445 836.832 127.513H877.3Z" fill="#075480"/>
<path d="M718.836 80.3467C739.458 80.3966 745.413 103.134 745.413 119.855L721.251 119.837C714.726 119.837 709.572 117.993 705.795 114.306C702.013 110.606 700.124 105.842 700.124 99.9969C700.124 93.7286 701.947 88.8536 705.665 85.4398C711.086 80.4632 718.836 80.3467 718.836 80.3467Z" fill="#075480"/>
<path d="M766.383 80.2651C781.242 80.2651 788.668 88.9367 788.668 106.287C788.668 118.658 786.719 130.239 782.806 141.013C778.905 151.799 773.252 161.199 765.857 169.23C758.474 177.264 749.606 183.533 739.26 188.045C728.909 192.559 717.373 194.802 704.666 194.802C690.747 194.802 678.139 192.317 666.843 187.327C655.553 182.357 645.997 175.374 638.183 166.399C630.372 157.419 624.483 147.092 620.535 135.409C616.495 123.64 614.473 111.147 614.473 97.918C614.473 84.0017 616.728 71.0076 621.241 58.9405C625.748 46.8751 632.103 36.4392 640.303 27.6361C648.509 18.8279 658.101 12.0321 669.096 7.21194C680.096 2.40343 691.949 0 704.663 0C716.519 0 728.007 1.67608 739.127 5.02323C750.252 8.37038 759.248 13.1689 766.125 19.3922C772.996 25.6171 776.425 32.894 776.425 41.2277C776.425 46.4657 774.687 50.7199 771.207 53.9889C767.726 57.2461 763.243 58.8823 757.748 58.8823C753.621 58.8823 748.146 56.6703 741.315 52.2479C734.491 47.8172 729.03 44.5949 724.954 42.5809C720.871 40.562 714.838 39.5517 706.854 39.5517C696.802 39.5517 688.147 42.3479 680.895 47.9337C673.63 53.5095 668.162 60.8313 664.464 69.8974C660.769 78.9602 658.92 88.469 658.92 98.4339C658.92 108.314 660.682 117.552 664.206 126.135C667.811 134.808 673.134 141.81 680.185 147.135C687.223 152.466 695.727 155.127 705.693 155.127C713.077 155.127 719.648 153.711 725.405 150.873C731.076 147.952 735.631 143.833 739.063 138.5C742.59 133.091 744.693 126.866 745.377 119.815H721.281C714.75 119.815 709.597 117.978 705.827 114.284C702.045 110.584 700.156 105.822 700.156 99.9769C700.156 93.707 701.993 88.8535 705.693 85.4198C709.388 81.9845 714.58 80.2651 721.281 80.2651H766.383Z" fill="#008DB9"/>
<path d="M582.828 192.662H564.782C548.599 192.662 544.694 184.841 544.694 168.336V32.6191H558.432C574.607 32.6191 582.828 40.4269 582.828 56.9447V192.662Z" fill="#075480"/>
<path d="M516.537 164.498C516.537 172.502 517.168 177.772 527.168 177.772C527.168 184.934 521.169 192.72 505.795 192.72C488.631 192.72 485.159 179.137 485.159 179.137C485.159 179.137 478.415 194.829 452.831 194.829C427.875 194.829 411.655 182.402 411.655 159.235C411.655 122.806 454.198 121.118 481.998 122.065C481.998 111.643 477.789 108.692 464.101 108.692C444.301 108.692 425.984 116.588 425.984 116.588C419.241 102.374 423.559 91.0056 435.668 87.006C443.878 84.2664 453.572 82.1609 467.257 82.1609C506.956 82.1609 516.538 100.375 516.538 130.068V164.498H516.537ZM461.25 168.286C474.838 168.286 481.997 159.45 481.997 145.234C459.148 143.66 446.195 148.185 446.195 158.187C446.195 164.402 449.779 168.286 461.25 168.286Z" fill="#075480"/>
<path d="M288.534 173.138V84.2649H306.016C316.648 84.2649 321.708 87.9416 323.074 95.0088C323.289 94.5777 329.185 82.1594 350.343 82.1594C382.671 82.1594 394.044 102.905 394.044 134.913V192.719H376.564C362.142 192.719 359.507 185.453 359.507 173.135V134.912C359.507 116.273 352.343 110.796 341.283 110.796C330.965 110.796 323.392 115.856 323.074 132.277V192.717H305.593C291.167 192.72 288.534 185.455 288.534 173.138Z" fill="#075480"/>
<path d="M162.562 138.493C162.562 105.748 182.362 82.1594 217.322 82.1594C247.54 82.1594 272.076 102.79 272.076 134.069C272.076 142.07 269.65 149.435 257.543 149.435H197.103C197.738 159.234 203.211 168.283 217.32 168.283C227.432 168.283 236.906 166.078 243.325 164.607C255.857 161.657 262.388 168.283 263.761 184.19C263.761 184.19 245.539 194.828 217.32 194.828C182.362 194.829 162.562 171.244 162.562 138.493ZM237.538 127.437C235.854 116.38 229.223 108.692 217.322 108.692C205.421 108.692 198.787 116.38 197.104 127.437H237.538Z" fill="#075480"/>
<path d="M20.8968 42.674C9.42396 42.674 0.149798 33.32 0.149798 21.7523H0V0.680664H83.296C117.726 0.680664 146.86 29.0175 146.714 63.5842C146.561 90.5894 129.5 113.588 105.664 122.335L142.881 156.459C151.421 164.172 152.015 177.374 144.364 185.982C136.707 194.594 123.612 195.182 115.07 187.47L53.7142 131.24C35.6103 114.772 47.243 84.3545 71.6667 84.3545H84.0201C95.0635 84.3545 104.632 75.7561 105.211 64.6294C105.804 52.6073 96.3917 42.6757 84.6192 42.6757L20.8968 42.674Z" fill="#008DB9"/>
<path d="M45.8066 169.816C45.8066 182.554 35.5454 192.875 22.9008 192.875C10.2612 192.875 0 182.555 0 169.816C0 157.071 10.2612 146.747 22.9008 146.747C35.5454 146.747 45.8066 157.071 45.8066 169.816Z" fill="#008DB9"/>
<path d="M142.946 156.524L105.691 122.461C84.4828 126.012 76.8248 152.523 92.8731 167.176L115.11 187.47C123.5 195.172 136.766 194.586 144.417 185.996C152.075 177.549 151.486 164.218 142.946 156.524Z" fill="#075480"/>
</svg>
